<?xml version="1.0" encoding="utf-8"?>
<!-- Generator: Adobe Illustrator 17.0.2, SVG Export Plug-In . SVG Version: 6.00 Build 0)  -->
<!DOCTYPE svg PUBLIC "-//W3C//DTD SVG 1.1//EN" "http://www.w3.org/Graphics/SVG/1.1/DTD/svg11.dtd">
<svg version="1.1" id="图形" xmlns="http://www.w3.org/2000/svg" xmlns:xlink="http://www.w3.org/1999/xlink" x="0px" y="0px"
	 width="1024px" height="1024px" viewBox="0 0 1024 1024" enable-background="new 0 0 1024 1024" xml:space="preserve">
<path fill="#DDDDDD" d="M44.805,765.019c23.297,0,431.72,0,447.743,0c20.837,0,36.317-21.602,24.174-42.936
	c-9.789-17.114-206.611-359.091-223.461-388.267c-11.047-19.168-37.407-18.838-48.51,0
	C232.445,354.82,34.579,698.081,20.798,722.965C10.735,741.174,21.888,765.019,44.805,765.019z"/>
<path fill="#DDDDDD" d="M503.805,684.728c23.297,0,431.72,0,447.743,0c20.837,0,36.317-21.602,24.174-42.936
	c-9.789-17.114-206.611-359.091-223.461-388.267c-11.047-19.168-37.407-18.838-48.51,0
	c-12.305,21.004-210.172,364.265-223.953,389.149C469.735,660.883,480.888,684.728,503.805,684.728z"/>
<path fill="#4C4C4C" d="M163.428,858.228c36.214,0,671.104,0,696.012,0c32.39,0,56.454-33.581,37.578-66.744
	C881.8,764.881,575.844,233.28,549.651,187.928c-17.173-29.796-58.149-29.284-75.409,0
	c-19.128,32.65-326.709,566.246-348.132,604.928C110.466,821.162,127.805,858.228,163.428,858.228z"/>
</svg>
